<svg width="63" height="62" viewBox="0 0 63 62" fill="none" xmlns="http://www.w3.org/2000/svg">
<path d="M49.0254 46.5472L15.8351 46.5423L17.5021 42.7679L45.1913 42.7162C46.1277 42.7163 46.9304 41.9727 47.0978 40.9438L50.9358 17.0755C51.0363 16.4495 50.8859 15.8049 50.5181 15.3152C50.3363 15.0742 50.1096 14.8801 49.8536 14.7462C49.5976 14.6124 49.3185 14.5421 49.0356 14.5402L13.8111 14.4049L13.5103 12.8305C13.321 11.8264 12.5073 11.0949 11.5821 11.0948L2.97105 11.0935C2.44925 11.0934 1.94879 11.3239 1.57976 11.7341C1.21073 12.1444 1.00336 12.7009 1.00328 13.2812C1.00319 13.8614 1.2104 14.418 1.5793 14.8283C1.94821 15.2387 2.44861 15.4693 2.97041 15.4694L9.98746 15.4704L11.3018 22.4249L14.5374 39.8606L10.3673 47.4278C10.1508 47.7527 10.0203 48.1386 9.99072 48.5417C9.96111 48.9448 10.0335 49.349 10.1998 49.7087C10.5341 50.4463 11.2084 50.9113 11.9553 50.9114L15.4554 50.9119C14.7091 52.0139 14.3058 53.3563 14.3067 54.7359C14.3062 58.2441 16.8696 61.0956 20.0242 61.096C23.1788 61.0965 25.7431 58.2457 25.7436 54.7376C25.7438 53.3555 25.3315 52.0104 24.596 50.9132L33.5749 50.9146C32.8286 52.0166 32.4253 53.359 32.4262 54.7386C32.4257 58.2467 34.9891 61.0982 38.1437 61.0987C41.2983 61.0992 43.8626 58.2484 43.8631 54.7403C43.8633 53.3581 43.451 52.0131 42.7155 50.9159L49.0303 50.9168C50.1116 50.917 50.9979 49.9378 50.9981 48.7292C50.9949 48.1495 50.7857 47.5948 50.4162 47.186C50.0466 46.7772 49.5466 46.5476 49.0254 46.5472ZM14.6297 18.7189L46.722 18.8414L43.5757 38.4145L18.3666 38.4604L14.6297 18.7189ZM20.0249 56.6954C19.0551 56.6952 18.2638 55.815 18.2639 54.7365C18.2641 53.6581 19.0557 52.7781 20.0254 52.7782C20.9952 52.7783 21.7866 53.6586 21.7864 54.737C21.7863 55.2565 21.6007 55.7547 21.2703 56.1219C20.94 56.4892 20.492 56.6955 20.0249 56.6954ZM38.1444 56.6981C37.1746 56.6979 36.3833 55.8177 36.3834 54.7392C36.3836 53.6607 37.1752 52.7807 38.1449 52.7809C39.1147 52.781 39.906 53.6612 39.9059 54.7397C39.9058 55.2592 39.7202 55.7573 39.3898 56.1246C39.0595 56.4918 38.6115 56.6981 38.1444 56.6981Z" fill="black"/>
<circle cx="44.0026" cy="18.0996" r="18" fill="#D35151"/>
<path d="M35.9731 6.25463C36.3272 6.50468 36.6918 6.69223 37.0668 6.81729C37.4417 6.94234 37.7751 7.03614 38.0667 7.09869C38.4209 7.18207 38.7646 7.22379 39.098 7.22384C39.5146 7.2239 39.8896 7.17187 40.223 7.06775C40.5772 6.96364 40.9626 6.85953 41.3793 6.75542C41.796 6.65132 42.2751 6.56806 42.8168 6.50564C43.3585 6.42238 44.0356 6.41206 44.8481 6.47468C45.6606 6.5373 46.3897 6.72491 47.0355 7.03751C47.6813 7.32927 48.2229 7.70435 48.6603 8.16275C49.1186 8.60031 49.4727 9.08995 49.7226 9.63165C49.9725 10.1734 50.0974 10.7255 50.0974 11.288C50.0556 12.1421 49.92 12.9442 49.6907 13.6941C49.4823 14.3399 49.1593 14.9753 48.7217 15.6003C48.2841 16.2044 47.6382 16.6313 46.784 16.8812C47.8257 17.0272 48.6381 17.2982 49.2214 17.6941C49.8255 18.09 50.2942 18.4963 50.6275 18.913C51.0024 19.4131 51.2627 19.9548 51.4085 20.5381C51.5334 21.309 51.5228 22.1007 51.3769 22.9131C51.2309 23.7048 50.96 24.4548 50.5641 25.163C50.189 25.8505 49.668 26.465 49.0013 27.0065C48.3554 27.5273 47.5741 27.9126 46.6574 28.1625C46.0323 28.329 45.3136 28.3706 44.5011 28.2871C43.7095 28.1829 42.9386 28.0369 42.1887 27.8493C41.4387 27.6617 40.7616 27.4741 40.1575 27.2865C39.5534 27.0989 39.1367 27.0155 38.9075 27.0363C38.72 27.0571 38.5013 27.13 38.2513 27.255C38.0221 27.3591 37.7512 27.5257 37.4387 27.7548C37.147 27.9631 36.7928 28.2652 36.376 28.6609C36.4804 27.7235 36.5534 26.9735 36.5951 26.411C36.6577 25.8485 36.7099 25.4006 36.7516 25.0672C36.7933 24.6922 36.8142 24.411 36.8142 24.2235L36.8143 23.536C36.8143 23.286 36.804 22.9631 36.7832 22.5672C36.7624 22.1714 36.7417 21.6714 36.7209 21.0672C37.7832 22.3591 38.7831 23.328 39.7205 23.9739C40.6579 24.6199 41.4807 25.0888 42.189 25.3805C43.0223 25.714 43.7827 25.8704 44.4702 25.8496C45.0536 25.808 45.5223 25.6206 45.8765 25.2873C46.2308 24.9332 46.4808 24.5166 46.6267 24.0374C46.7726 23.5583 46.8248 23.0479 46.7832 22.5062C46.7416 21.9437 46.6063 21.4229 46.3772 20.9437C46.1689 20.4436 45.8773 20.0165 45.5024 19.6623C45.1274 19.2872 44.69 19.058 44.19 18.9746C43.5858 18.8703 43.0129 18.8598 42.4712 18.9431C41.9921 19.0055 41.492 19.1513 40.9712 19.3804C40.4503 19.5886 40.0127 19.9531 39.6585 20.4739C39.6169 20.1197 39.5857 19.8177 39.5649 19.5677C39.5649 19.3177 39.5545 19.1093 39.5337 18.9427C39.5129 18.7551 39.5025 18.6197 39.5025 18.5364C39.5026 18.4322 39.4922 18.276 39.4714 18.0676C39.4505 17.901 39.4297 17.6822 39.409 17.4114C39.409 17.1197 39.3882 16.7551 39.3466 16.3176C39.7216 16.4218 40.0758 16.5052 40.4091 16.5678C40.7424 16.6095 41.0341 16.6408 41.2841 16.6617C41.5757 16.6825 41.8466 16.6826 42.0966 16.6618C42.4091 16.641 42.7841 16.5265 43.2216 16.3182C43.68 16.0891 44.1071 15.7871 44.503 15.4121C44.8989 15.0372 45.2115 14.5893 45.4407 14.0685C45.6908 13.5477 45.7742 12.9748 45.6909 12.3498C45.5036 11.0789 45.0767 10.1726 44.4101 9.63087C43.7643 9.06827 43.0977 8.80776 42.4102 8.84933C41.9519 8.91176 41.4102 9.13043 40.7851 9.50534C40.2434 9.81776 39.5975 10.2968 38.8474 10.9426C38.1181 11.5674 37.2847 12.4527 36.347 13.5984C36.3888 13.0359 36.4097 12.5359 36.4097 12.0984C36.4098 11.6401 36.4099 11.2651 36.4099 10.9734C36.41 10.6193 36.3996 10.3068 36.3788 10.0359L36.2852 9.09842C36.2436 8.78592 36.2019 8.39008 36.1603 7.91091C36.1188 7.43173 36.0563 6.87964 35.9731 6.25463Z" fill="white"/>
</svg>
