<svg width="49" height="43" viewBox="0 0 49 43" fill="none" xmlns="http://www.w3.org/2000/svg">
<g filter="url(#filter0_d_10_60)">
<path d="M24.3355 35C19.0793 35 14.0384 33.1563 10.3218 29.8744C6.60509 26.5925 4.51709 22.1413 4.51709 17.5C4.51709 12.8587 6.60509 8.40752 10.3218 5.12563C14.0384 1.84374 19.0793 0 24.3355 0C29.5916 0 34.6325 1.84374 38.3492 5.12563C42.0658 8.40752 44.1538 12.8587 44.1538 17.5C44.1538 22.1413 42.0658 26.5925 38.3492 29.8744C34.6325 33.1563 29.5916 35 24.3355 35ZM33.006 18.5938C33.3345 18.5938 33.6496 18.4785 33.8819 18.2734C34.1142 18.0683 34.2447 17.7901 34.2447 17.5C34.2447 17.2099 34.1142 16.9317 33.8819 16.7266C33.6496 16.5215 33.3345 16.4062 33.006 16.4062L18.655 16.4063L23.9738 11.7119C24.2064 11.5065 24.337 11.2279 24.337 10.9375C24.337 10.6471 24.2064 10.3685 23.9738 10.1631C23.7412 9.95775 23.4257 9.84237 23.0968 9.84237C22.7679 9.84237 22.4524 9.95775 22.2199 10.1631L14.788 16.7256C14.6726 16.8272 14.5811 16.9479 14.5186 17.0808C14.4562 17.2137 14.4241 17.3561 14.4241 17.5C14.4241 17.6439 14.4562 17.7863 14.5186 17.9192C14.5811 18.0521 14.6726 18.1728 14.788 18.2744L22.2199 24.8369C22.4524 25.0423 22.7679 25.1576 23.0968 25.1576C23.4257 25.1576 23.7412 25.0423 23.9738 24.8369C24.2064 24.6315 24.337 24.3529 24.337 24.0625C24.337 23.7721 24.2064 23.4935 23.9738 23.2881L18.655 18.5938L33.006 18.5938Z" fill="black"/>
</g>
<defs>
<filter id="filter0_d_10_60" x="0.51709" y="0" width="47.6367" height="43" filterUnits="userSpaceOnUse" color-interpolation-filters="sRGB">
<feFlood flood-opacity="0" result="BackgroundImageFix"/>
<feColorMatrix in="SourceAlpha" type="matrix" values="0 0 0 0 0 0 0 0 0 0 0 0 0 0 0 0 0 0 127 0" result="hardAlpha"/>
<feOffset dy="4"/>
<feGaussianBlur stdDeviation="2"/>
<feComposite in2="hardAlpha" operator="out"/>
<feColorMatrix type="matrix" values="0 0 0 0 0 0 0 0 0 0 0 0 0 0 0 0 0 0 0.25 0"/>
<feBlend mode="normal" in2="BackgroundImageFix" result="effect1_dropShadow_10_60"/>
<feBlend mode="normal" in="SourceGraphic" in2="effect1_dropShadow_10_60" result="shape"/>
</filter>
</defs>
</svg>
