<svg width="48" height="48" viewBox="0 0 48 48" fill="none" xmlns="http://www.w3.org/2000/svg">
<path d="M45.8338 38.1222L37.9166 30.2027L31.8264 27.6855C33.8548 24.8019 34.9418 21.3615 34.9384 17.8359C34.9398 8.35862 27.2307 0.647233 17.7534 0.645839C8.27617 0.644445 0.564784 8.35356 0.563389 17.8308C0.561995 27.3081 8.27111 35.0194 17.7484 35.0208C21.3046 35.0254 24.7738 33.9207 27.6726 31.8605L30.1814 37.9351L38.0983 45.855C38.6061 46.3629 39.2089 46.7658 39.8723 47.0408C40.5358 47.3158 41.2469 47.4573 41.9651 47.4575C42.6833 47.4576 43.3945 47.3163 44.058 47.0415C44.7216 46.7668 45.3245 46.3641 45.8325 45.8564C46.3404 45.3486 46.7433 44.7458 47.0183 44.0824C47.2932 43.4189 47.4348 42.7078 47.4349 41.9896C47.4351 41.2714 47.2937 40.5602 47.019 39.8967C46.7443 39.2331 46.3416 38.6302 45.8338 38.1222ZM3.68839 17.8313C3.68953 10.0774 9.99905 3.7697 17.753 3.77084C25.5069 3.77198 31.8145 10.0815 31.8134 17.8354C31.8122 25.5893 25.5027 31.897 17.7488 31.8958C9.99491 31.8947 3.68725 25.5852 3.68839 17.8313ZM43.6232 43.6461C43.1832 44.085 42.5871 44.3314 41.9657 44.3313C41.3443 44.3312 40.7483 44.0846 40.3085 43.6456L32.8319 36.1668L30.4993 30.5185L36.1471 32.8527L43.6239 40.3316C44.0626 40.7716 44.309 41.3676 44.3088 41.989C44.3087 42.6104 44.0621 43.2063 43.6232 43.6461Z" fill="black"/>
</svg>
