<svg width="285" height="50" viewBox="0 0 285 50" fill="none" xmlns="http://www.w3.org/2000/svg">
<g filter="url(#filter0_i_5_365)">
<path d="M0.69104 3.58443C2.56599 3.91804 4.10762 4.14743 5.31594 4.27261C6.52425 4.39778 7.50341 4.5021 8.25339 4.58554C9.12838 4.669 9.81588 4.68994 10.3159 4.64834L12.1909 4.64862C12.8576 4.64872 13.6909 4.64884 14.6909 4.64899C15.7326 4.60747 17.0242 4.58683 18.5659 4.58706C19.4406 6.62885 20.232 8.50397 20.9401 10.2124C21.6898 11.9208 22.3146 13.3793 22.8144 14.5877C23.3975 16.0461 23.939 17.3587 24.4388 18.5254C25.022 19.9838 25.6467 21.5881 26.3131 23.3382C26.9795 25.0883 27.5835 26.7342 28.1249 28.276C28.708 29.8177 29.187 31.0886 29.5618 32.0887C29.9367 33.0887 30.1241 33.5471 30.1241 33.4638C30.1242 33.4221 30.145 33.0054 30.1868 32.2138C30.2286 31.3804 30.2704 30.3596 30.3123 29.1513C30.3541 27.9013 30.396 26.5471 30.4379 25.0888C30.5214 23.5888 30.5633 22.1513 30.5635 20.7763C30.6054 19.3597 30.6264 18.068 30.6266 16.9013C30.6268 15.7347 30.5852 14.8597 30.502 14.2763C30.3771 13.568 30.1272 12.7554 29.7523 11.8387C29.4191 11.047 28.9609 10.1094 28.3777 9.026C27.7946 7.90091 26.9823 6.62996 25.9408 5.21314C27.6491 5.25506 29.045 5.2761 30.1283 5.27626C31.2116 5.27642 32.0866 5.27655 32.7533 5.27664C33.5033 5.27675 34.0866 5.25601 34.5033 5.2144C35.045 5.21448 35.7116 5.17291 36.5033 5.0897C37.2117 5.00647 38.0867 4.9441 39.1283 4.90258C40.2117 4.81941 41.545 4.71544 43.1284 4.59067C42.2116 5.42387 41.4823 6.21543 40.9405 6.96535C40.3988 7.71527 39.9612 8.38187 39.6277 8.96516C39.2527 9.63177 39.0026 10.2567 38.8775 10.84C38.7107 11.59 38.5647 12.8192 38.4394 14.5275C38.3559 16.1941 38.2514 18.0691 38.1261 20.1524C38.0425 22.2358 37.9588 24.4024 37.8751 26.6524C37.7915 28.9024 37.7078 30.9649 37.6242 32.8399C37.624 34.2565 37.5821 35.7774 37.4986 37.4023C37.415 38.7773 37.3315 40.3398 37.2479 42.0898C37.1643 43.7981 37.0599 45.5273 36.9346 47.2773L31.3721 47.4014C29.7475 44.5262 28.3729 42.0677 27.2482 40.0258C26.1652 37.9423 25.2696 36.2339 24.5614 34.9004C23.77 33.3587 23.1035 32.0669 22.562 31.0251C22.1038 30.0251 21.4998 28.8792 20.75 27.5874C20.1252 26.504 19.3337 25.1705 18.3756 23.587C17.4592 22.0036 16.3553 20.1909 15.0639 18.149C14.9385 21.024 14.8756 23.4823 14.8753 25.524C14.9167 27.524 14.9789 29.1907 15.0621 30.524C15.1869 32.0657 15.3325 33.3574 15.499 34.3991C15.7072 35.3991 15.9987 36.5242 16.3735 37.7742C16.7067 38.8576 17.1023 40.1285 17.5604 41.5869C18.0602 43.0453 18.6642 44.6912 19.3722 46.5247C16.9139 46.3993 15.0806 46.3365 13.8723 46.3364L11.9973 46.3361C11.4139 46.336 10.6222 46.3984 9.62222 46.5232C8.78888 46.6065 7.64303 46.7313 6.18467 46.8977C4.76798 47.0642 2.99711 47.2931 0.872067 47.5845C1.87224 46.3763 2.66407 45.2722 3.24755 44.2723C3.87271 43.2307 4.352 42.3558 4.68544 41.6475C5.10223 40.8142 5.394 40.0851 5.56076 39.4601C5.68586 38.7935 5.76936 37.6477 5.81127 36.0227C5.85318 34.356 5.85346 32.481 5.8121 30.3977C5.81241 28.2727 5.77107 26.0435 5.68808 23.7102C5.64676 21.3768 5.58458 19.2101 5.50154 17.2101C5.4185 15.2101 5.31458 13.5018 5.18979 12.0851C5.10667 10.6684 5.04429 9.7934 5.00268 9.46006C4.87776 8.91838 4.62784 8.33501 4.25293 7.70995C3.91968 7.16824 3.48227 6.564 2.9407 5.89726C2.39914 5.18884 1.64925 4.4179 0.69104 3.58443ZM39.6283 5.21516C42.545 5.29892 44.9616 5.36177 46.8783 5.40372C48.8366 5.40401 50.4199 5.40424 51.6283 5.40442L54.9408 5.40491L73.5658 5.40765C73.649 6.24099 73.7114 7.0535 73.7529 7.84518C73.8361 8.59519 73.8777 9.26186 73.8776 9.84519C73.8775 10.5535 73.8566 11.1994 73.8148 11.7827C73.7731 12.366 73.7105 12.991 73.6271 13.6577C73.5436 14.241 73.4602 14.866 73.3768 15.5326C73.2934 16.1993 73.1474 16.8868 72.939 17.5951C72.356 15.345 71.5646 13.6365 70.5647 12.4697C69.6066 11.3029 68.6275 10.4486 67.6276 9.90677C66.461 9.2816 65.2319 8.94809 63.9403 8.90623C62.2319 8.98931 60.8986 9.13495 59.9402 9.34314C58.9818 9.55134 58.2318 9.84289 57.6901 10.2178C57.1483 10.5927 56.7316 11.0302 56.4399 11.5301C56.1898 11.9884 55.9189 12.5092 55.6271 13.0925C55.3771 13.5925 55.1478 14.3633 54.9393 15.4049C54.7308 16.2799 54.5223 17.4673 54.3138 18.9673C54.1469 20.4673 53.9591 22.4048 53.7504 24.7797C54.8755 24.4466 55.7714 24.1342 56.4381 23.8426C57.1464 23.5511 57.709 23.3011 58.1257 23.0929C58.584 22.8429 58.9174 22.6138 59.1258 22.4055C59.2925 22.1555 59.5425 21.6973 59.876 21.0306C60.1261 20.4473 60.4595 19.6557 60.8763 18.6558C61.3348 17.6558 61.8767 16.2809 62.5019 14.531C62.585 16.4477 62.6264 18.0519 62.6262 19.3435C62.626 20.5935 62.6467 21.6144 62.6883 22.406C62.6881 23.3227 62.7089 24.0519 62.7505 24.5936L62.7501 26.9686C62.75 27.8436 62.7498 29.0311 62.7496 30.5311C62.791 31.9894 62.8533 33.8436 62.9363 36.0936C62.4365 34.5518 61.9783 33.3434 61.5618 32.4684C61.1869 31.5517 60.8537 30.8641 60.5621 30.4057C60.2288 29.864 59.9372 29.489 59.6873 29.2806C59.3956 29.1972 58.9998 29.1138 58.4998 29.0304C58.0415 28.9887 57.4581 28.9678 56.7498 28.9677C56.0831 28.9676 55.229 29.0716 54.1873 29.2798C54.0619 31.5714 54.0408 33.4256 54.1239 34.8423C54.2487 36.2173 54.4153 37.2798 54.6235 38.0299C54.8317 38.9049 55.0816 39.5299 55.3732 39.905C55.7481 40.28 56.4981 40.5926 57.6231 40.8428C58.748 41.0513 60.0189 41.1348 61.4355 41.0934C62.8939 41.0102 64.3731 40.7605 65.8731 40.344C67.3732 39.9276 68.7066 39.2403 69.8734 38.2821C70.7486 37.4906 71.6862 36.4907 72.6864 35.2825C73.5199 34.241 74.4367 32.9286 75.437 31.3454C76.4789 29.7622 77.5 27.8457 78.5003 25.5959C78.3334 27.4709 78.2081 29.0333 78.1246 30.2833C78.0828 31.4916 78.0201 32.4708 77.9367 33.2208C77.8532 34.0958 77.7906 34.7624 77.7489 35.2208C77.7488 35.7208 77.6862 36.4291 77.5611 37.3457C77.4776 38.1374 77.3316 39.2207 77.1231 40.5957C76.9562 41.929 76.7268 43.6373 76.4348 45.7206C74.4765 45.7619 72.6223 45.8033 70.8723 45.8448C69.1223 45.8445 67.5807 45.8651 66.2473 45.9066C64.664 45.948 63.2056 45.9895 61.8723 46.0309C60.4973 46.0307 58.9765 46.093 57.3098 46.2178C55.8514 46.3009 54.1222 46.4256 52.1222 46.592C50.1639 46.7584 47.9972 46.9872 45.6221 47.2785C45.8309 44.4452 45.9771 41.7786 46.0608 39.2786C46.1862 36.737 46.2698 34.5078 46.3118 32.5911C46.3538 30.3411 46.3541 28.2578 46.3127 26.3411C46.5217 21.5495 46.439 17.6745 46.0644 14.7161C45.6898 11.7577 45.2526 9.86182 44.7527 9.02841C44.5028 8.73671 44.1487 8.38249 43.6904 7.96575C43.3154 7.63236 42.7947 7.23645 42.1281 6.77802C41.4615 6.31959 40.6282 5.79864 39.6283 5.21516ZM78.1912 2.28333C79.5245 2.49186 80.7328 2.67954 81.8162 2.84636C82.8995 2.97152 83.837 3.07583 84.6286 3.15928C85.5453 3.28441 86.3577 3.3887 87.0661 3.47213C87.941 3.59726 89.2536 3.45162 91.0036 3.03521C92.7537 2.57714 94.6704 2.16075 96.7538 1.78606C98.8789 1.36971 101.046 1.14086 103.254 1.09952C105.462 1.01651 107.483 1.41264 109.316 2.28791C111.149 3.16318 112.649 4.0384 113.816 4.91357C114.982 5.78874 115.899 6.72638 116.565 7.72647C117.274 8.68491 117.773 9.70582 118.065 10.7892C118.356 11.8726 118.523 13.0601 118.564 14.3518C118.523 16.2684 118.064 18.1225 117.189 19.9141C116.814 20.664 116.313 21.4556 115.688 22.2888C115.105 23.0804 114.376 23.8512 113.5 24.601C112.625 25.3509 111.584 26.0591 110.375 26.7256C109.208 27.3921 107.833 27.9752 106.25 28.475C107.791 28.9335 109.062 29.4754 110.062 30.1005C111.104 30.7257 111.937 31.3091 112.562 31.8509C113.312 32.5177 113.874 33.1636 114.249 33.7886C114.707 34.6637 115.02 35.4137 115.186 36.0388C115.353 36.6638 115.457 37.268 115.499 37.8513C115.582 38.393 115.686 38.9555 115.811 39.5389C115.936 40.1222 116.206 40.7889 116.623 41.539C116.956 42.1224 117.352 42.7266 117.81 43.3517C118.227 43.8934 118.706 44.4768 119.247 45.1019C119.831 45.727 120.539 46.3312 121.372 46.9147C120.205 46.9562 119.122 46.9769 118.122 46.9767C117.164 46.9766 116.33 46.9764 115.622 46.9763C114.789 46.9762 113.997 46.9553 113.247 46.9135C112.497 46.8717 111.56 46.8507 110.435 46.8506C109.476 46.8504 108.247 46.8503 106.747 46.85C105.289 46.8498 103.518 46.8704 101.435 46.9117C102.351 46.2036 103.102 45.4953 103.685 44.7871C104.268 44.0788 104.727 43.4331 105.06 42.8498C105.435 42.1832 105.706 41.5374 105.873 40.9124C106.082 39.7874 106.103 38.6208 105.936 37.4124C105.811 36.3707 105.478 35.2248 104.937 33.9748C104.395 32.683 103.52 31.3912 102.312 30.0994C101.104 30.3075 100.083 30.474 99.2496 30.5989C98.4579 30.6821 97.7704 30.7654 97.187 30.8486C96.5204 30.9319 95.9787 30.9943 95.562 31.0359C95.187 31.0775 94.7703 31.1191 94.312 31.1607C93.937 31.2023 93.5203 31.2648 93.062 31.348C92.6453 31.3896 92.2494 31.4521 91.8744 31.5353C91.7908 33.327 91.7906 34.8895 91.8737 36.2228C91.9569 37.5145 92.0609 38.5979 92.1858 39.4729C92.3523 40.5146 92.5396 41.4104 92.7479 42.1605C92.9561 42.9105 93.2476 43.6397 93.6225 44.3481C93.9141 44.9315 94.289 45.5565 94.7473 46.2233C95.2055 46.8483 95.7263 47.3692 96.3095 47.786C95.2262 47.7858 94.1845 47.7857 93.1845 47.7855C92.2262 47.7854 91.3512 47.7644 90.5595 47.7226C89.6429 47.7225 88.7679 47.7016 87.9346 47.6598C87.1012 47.618 86.1637 47.597 85.1221 47.5968C84.2471 47.5967 83.2054 47.5966 81.9971 47.5964C80.8304 47.5962 79.5596 47.6169 78.1846 47.6583C79.2681 46.5335 80.1224 45.5753 80.7475 44.7837C81.3726 43.9921 81.8519 43.3255 82.1853 42.7839C82.5604 42.2006 82.7896 41.7007 82.873 41.284C82.9564 40.6174 83.0191 39.4299 83.061 37.7215C83.1446 35.9716 83.2074 33.9716 83.2494 31.7216C83.2914 29.4716 83.3126 27.1174 83.3129 24.6591C83.3133 22.2007 83.2928 19.9091 83.2515 17.7841C83.2101 15.6174 83.1687 13.7632 83.1273 12.2216C83.0858 10.6799 83.0443 9.70071 83.0027 9.28404C82.8778 8.53402 82.6071 7.78398 82.1905 7.03392C81.8573 6.3672 81.3782 5.61713 80.7534 4.78371C80.1285 3.95028 79.2744 3.11682 78.1912 2.28333ZM101.813 24.2868C102.23 24.0369 102.584 23.7869 102.876 23.537C103.167 23.287 103.417 22.8912 103.626 22.3496C103.834 21.7663 104.001 20.9538 104.126 19.9121C104.293 18.8705 104.481 17.4539 104.689 15.6622C104.856 13.8706 104.731 12.3914 104.315 11.2247C103.94 10.058 103.419 9.14121 102.753 8.47444C102.128 7.76602 101.42 7.28675 100.628 7.03663C99.8781 6.74485 99.2114 6.59892 98.6281 6.59884C97.4614 6.59866 96.3155 6.95266 95.1904 7.66083C94.0653 8.369 93.211 9.32721 92.6275 10.5355C92.4191 11.0771 92.2315 11.9729 92.0646 13.2229C91.9395 14.3062 91.8559 15.8062 91.814 17.7228C91.772 19.6395 91.8341 22.1603 92.0003 25.2854C93.5836 25.5356 94.9795 25.64 96.1878 25.5985C97.3961 25.5153 98.417 25.3696 99.2504 25.1614C100.25 24.9532 101.105 24.6617 101.813 24.2868ZM118.816 3.35181C120.274 3.56035 121.545 3.72721 122.629 3.85237C123.712 3.97753 124.608 4.08182 125.316 4.16526C126.149 4.24872 126.858 4.31132 127.441 4.35307C128.108 4.43651 128.92 4.39496 129.878 4.22843C130.878 4.06191 131.941 3.8954 133.066 3.7289C134.191 3.52073 135.358 3.35424 136.566 3.22942C137.774 3.10459 138.941 3.10477 140.066 3.22993C140.816 3.31338 141.774 3.48018 142.941 3.73035C144.108 3.98053 145.337 4.37654 146.628 4.9184C147.962 5.46026 149.295 6.16879 150.628 7.04399C151.961 7.91918 153.169 9.02353 154.253 10.357C155.336 11.6905 156.231 13.274 156.939 15.1074C157.647 16.9409 158.043 19.0867 158.126 21.5451C158.25 25.2118 157.917 28.5451 157.124 31.5449C156.332 34.5448 155.103 37.1071 153.436 39.2319C151.81 41.3567 149.748 43.023 147.248 44.231C144.747 45.439 141.831 46.1052 138.497 46.2297C135.956 46.4377 133.456 46.6248 130.997 46.7911C129.956 46.8743 128.851 46.9366 127.685 46.9781C126.56 47.0196 125.435 47.0611 124.31 47.1026C123.185 47.1024 122.101 47.0815 121.06 47.0396C120.018 46.9978 119.06 46.9352 118.185 46.8517C119.143 46.3935 119.914 45.9353 120.497 45.4771C121.122 45.0188 121.602 44.623 121.935 44.2898C122.31 43.8732 122.581 43.4982 122.748 43.1649C122.831 42.7066 122.956 41.8107 123.123 40.4774C123.248 39.3525 123.415 37.7483 123.624 35.665C123.832 33.5817 124.083 30.7484 124.375 27.1651L124.751 22.7277C124.959 19.9777 125.043 17.7277 125.002 15.9777C125.002 14.2277 124.961 12.8527 124.877 11.8527C124.752 10.686 124.586 9.83182 124.378 9.29012C124.211 8.83177 123.899 8.29005 123.44 7.66499C123.024 7.16492 122.441 6.56067 121.691 5.85223C120.982 5.10212 120.024 4.26865 118.816 3.35181ZM132 26.3537C132.083 30.0621 132.27 32.9163 132.561 34.9163C132.894 36.8747 133.248 38.3331 133.623 39.2915C134.081 40.3749 134.581 41.0208 135.123 41.2292C135.915 41.2293 136.811 40.8961 137.811 40.2296C138.811 39.5214 139.79 38.4591 140.749 37.0425C141.749 35.626 142.645 33.8553 143.437 31.7304C144.271 29.6056 144.875 27.1265 145.25 24.2932C145.626 21.4599 145.522 18.9599 144.939 16.7931C144.356 14.6264 143.586 12.8138 142.627 11.3553C141.669 9.85517 140.69 8.73002 139.69 7.97988C138.691 7.18806 137.941 6.79212 137.441 6.79205C136.857 6.79196 136.336 6.95855 135.878 7.29182C135.42 7.58341 134.774 8.27082 133.94 9.35403C133.523 9.9373 133.148 10.7706 132.815 11.8539C132.523 12.8122 132.273 14.083 132.064 15.6663C131.856 17.2496 131.793 19.2912 131.876 21.7912L132 26.3537ZM160.376 17.9829C161.168 18.0247 161.876 18.0456 162.501 18.0457C163.168 18.0042 163.731 17.9626 164.189 17.921C164.731 17.8794 165.21 17.8378 165.626 17.7962C166.251 17.713 166.897 17.6089 167.564 17.484C168.147 17.4007 168.752 17.2967 169.377 17.1717C170.043 17.0052 170.689 16.8178 171.314 16.6095C171.064 17.2345 170.856 17.7761 170.689 18.2344C170.522 18.6927 170.397 19.0886 170.314 19.4219C170.189 19.7969 170.126 20.1094 170.126 20.3594C170.084 20.651 170.063 21.0052 170.063 21.4218C170.022 22.1302 170.021 23.276 170.063 24.8593C172.23 22.9847 174.043 21.5266 175.501 20.4851C177.001 19.4437 178.189 18.6314 179.064 18.0482C180.106 17.3817 180.918 16.9443 181.502 16.736C183.043 16.4863 184.397 16.8406 185.564 17.7991C186.064 18.2159 186.543 18.7784 187.001 19.4868C187.459 20.1536 187.855 21.0495 188.188 22.1745C188.521 23.2996 188.771 24.6538 188.938 26.2371C189.104 27.7788 189.125 29.633 188.999 31.7996C188.124 31.8828 187.333 31.9661 186.624 32.0493C185.958 32.1325 185.395 32.1949 184.937 32.2365C184.395 32.3198 183.895 32.3614 183.437 32.3613L181.749 32.5486C181.166 32.6318 180.437 32.715 179.562 32.7982C178.728 32.8398 177.708 32.923 176.499 33.0478C178.249 31.6314 179.375 30.4024 179.875 29.3608C180.417 28.2775 180.646 27.3817 180.563 26.6734C180.479 25.8817 180.105 25.1942 179.438 24.6107C178.646 24.1523 177.792 23.9855 176.876 24.1103C176.084 24.1936 175.167 24.5476 174.125 25.1724C173.084 25.7973 171.979 26.9638 170.812 28.672C170.895 31.3386 170.978 33.547 171.061 35.297C171.186 37.047 171.29 38.4637 171.373 39.547C171.498 40.7971 171.602 41.7762 171.685 42.4846C171.81 43.1096 172.06 43.7763 172.435 44.4847C172.727 45.0681 173.143 45.714 173.685 46.4224C174.226 47.1308 174.935 47.8392 175.809 48.5477C173.976 48.4641 172.476 48.4639 171.309 48.547C170.601 48.5886 169.976 48.6302 169.434 48.6718C168.851 48.755 168.226 48.8382 167.559 48.9215C166.976 49.0047 166.289 49.088 165.497 49.1712C164.747 49.2961 163.913 49.4209 162.997 49.5458C163.33 49.0875 163.601 48.5459 163.81 47.9209C164.018 47.3376 164.185 46.7751 164.31 46.2335C164.477 45.6085 164.602 44.9627 164.685 44.2961C164.727 43.7127 164.748 42.8377 164.748 41.6711C164.79 40.5044 164.769 39.1919 164.686 37.7336C164.645 36.2335 164.582 34.6919 164.499 33.1085C164.416 31.4835 164.312 29.9627 164.187 28.546C164.063 27.1293 163.917 25.9001 163.75 24.8584C163.626 23.7751 163.48 23.025 163.313 22.6084C163.105 22.1083 162.855 21.6083 162.563 21.1082C162.314 20.6499 162.001 20.1707 161.626 19.6706C161.251 19.1289 160.835 18.5663 160.376 17.9829ZM207.874 37.8649C209.04 37.8651 210.124 37.7402 211.124 37.4904C211.957 37.2822 212.749 36.949 213.499 36.4907C214.29 35.9909 214.811 35.2618 215.062 34.3035C215.895 34.4703 216.603 34.6162 217.186 34.7413C217.77 34.8247 218.27 34.9081 218.686 34.9915C219.145 35.1166 219.541 35.2 219.874 35.2417C220.207 35.3251 220.603 35.4084 221.061 35.4918C221.478 35.5752 221.978 35.6795 222.561 35.8046C223.186 35.888 223.915 36.0131 224.749 36.1799C224.124 36.0965 223.478 36.1589 222.811 36.3671C222.186 36.5753 221.582 36.8044 220.999 37.0543C220.332 37.3459 219.707 37.7 219.123 38.1166C218.748 38.3665 218.311 38.7414 217.811 39.2414C217.352 39.7413 216.686 40.2204 215.811 40.6786C214.936 41.1368 213.769 41.5324 212.31 41.8656C210.894 42.157 209.06 42.2609 206.81 42.1773C204.102 42.0935 201.831 41.614 199.998 40.7387C198.165 39.8218 196.686 38.7174 195.561 37.4256C194.436 36.0921 193.624 34.6545 193.124 33.1127C192.624 31.571 192.354 30.1335 192.312 28.8001C192.271 27.4668 192.667 26.071 193.5 24.6128C194.334 23.1546 195.501 21.8214 197.001 20.6133C198.543 19.4052 200.397 18.4263 202.564 17.6766C204.731 16.8853 207.106 16.4898 209.689 16.4902C211.189 16.4904 212.564 16.6781 213.814 17.0533C215.106 17.3868 216.272 17.8453 217.314 18.4288C218.397 19.0123 219.335 19.6791 220.126 20.4292C220.918 21.1377 221.584 21.8669 222.126 22.617C222.667 23.4088 223.126 24.2422 223.5 25.1172C223.834 25.8673 224.104 26.7215 224.313 27.6798C224.521 28.6382 224.583 29.6174 224.5 30.6174C221.333 30.7002 218.77 30.7623 216.812 30.8037C214.895 30.8451 213.395 30.8657 212.312 30.8656L209.5 30.8651L207.375 30.8648C206.625 30.8647 205.645 30.8854 204.437 30.9269C203.229 30.9684 201.75 31.0307 199.999 31.1137C200.208 32.7804 200.728 34.0722 201.561 34.989C202.436 35.8641 203.353 36.5309 204.311 36.9894C205.394 37.4895 206.582 37.7814 207.874 37.8649ZM202.25 26.6141C203.583 26.6976 204.688 26.7603 205.563 26.8021C206.479 26.8439 207.229 26.8856 207.813 26.9274C208.438 26.9692 208.938 26.9901 209.313 26.9901L210.875 26.9903C211.917 26.9905 213.854 26.9283 216.688 26.8037C216.563 24.9704 216.167 23.5745 215.501 22.616C214.876 21.6576 214.209 20.9492 213.501 20.4907C212.668 19.9906 211.751 19.6988 210.751 19.6153C208.043 19.6566 206.022 20.2188 204.688 21.3019C203.397 22.3851 202.584 24.1558 202.25 26.6141ZM254.565 12.2468C254.19 13.1634 253.856 13.9967 253.564 14.7466C253.314 15.4966 253.085 16.1632 252.877 16.7465C252.668 17.4132 252.481 17.9965 252.314 18.4964C252.147 19.0798 251.96 19.7464 251.751 20.4964C251.543 21.163 251.272 21.9963 250.938 22.9962C250.646 23.9545 250.292 25.1003 249.875 26.4336C249.542 24.4335 248.938 22.8501 248.063 21.6833C247.189 20.4749 246.293 19.5372 245.376 18.8704C244.293 18.1203 243.126 17.5784 241.877 17.2449C239.627 16.8696 238.002 16.911 237.002 17.3692C236.001 17.8274 235.335 18.4106 235.001 19.1189C234.835 19.4105 234.647 19.7855 234.439 20.2438C234.272 20.6605 234.126 21.0979 234.001 21.5563C233.918 22.0146 233.897 22.4729 233.938 22.9312C233.98 23.3896 234.167 23.7646 234.501 24.0563C234.709 24.2647 235.25 24.5564 236.125 24.9316C237 25.265 238.042 25.661 239.25 26.1195C240.5 26.5364 241.813 26.9949 243.188 27.4951C244.604 27.9953 245.937 28.4955 247.187 28.9957C248.437 29.4959 249.52 29.996 250.437 30.4962C251.354 30.9963 251.958 31.4547 252.249 31.8714C252.499 32.2881 252.77 32.8507 253.062 33.5591C253.395 34.2258 253.624 34.9758 253.749 35.8092C253.915 36.6008 253.957 37.4342 253.873 38.3092C253.832 39.1425 253.602 39.9758 253.186 40.8091C252.769 41.6423 252.102 42.4131 251.185 43.1213C250.31 43.8295 249.123 44.4126 247.622 44.8708C245.872 45.4122 244.185 45.5578 242.56 45.3075C240.935 45.0573 239.435 44.6821 238.06 44.1818C236.727 43.6817 235.56 43.2023 234.56 42.7438C233.56 42.2437 232.852 42.0353 232.435 42.1185C231.977 42.2018 231.456 42.4309 230.873 42.8058C230.289 43.1807 229.727 43.5765 229.185 43.993C228.685 44.368 228.247 44.7221 227.872 45.0554C227.497 45.347 227.31 45.4511 227.31 45.3678C227.31 45.2844 227.372 45.0344 227.498 44.6178C227.664 44.2012 227.831 43.7012 227.998 43.1179C228.206 42.4929 228.394 41.8263 228.561 41.118C228.769 40.368 228.915 39.6597 228.998 38.993C229.082 38.4514 229.186 37.7847 229.311 36.9931C229.395 36.2847 229.499 35.4306 229.624 34.4306C229.791 33.389 229.979 32.139 230.187 30.6807C230.395 31.7641 230.687 32.7016 231.062 33.4933C231.478 34.285 231.874 34.9726 232.249 35.556C232.707 36.2227 233.144 36.7853 233.561 37.2437C234.186 37.8271 234.915 38.3689 235.748 38.869C236.623 39.3691 237.498 39.8068 238.373 40.1819C239.248 40.5154 240.081 40.7238 240.873 40.8073C241.665 40.8907 242.331 40.8075 242.873 40.5576C243.415 40.3076 243.873 39.8494 244.248 39.1828C244.665 38.5162 244.957 37.787 245.124 36.9954C245.29 36.2037 245.353 35.4538 245.311 34.7454C245.27 33.9954 245.082 33.3912 244.749 32.9328C244.499 32.6411 243.916 32.266 242.999 31.8076C242.124 31.3491 241.062 30.849 239.812 30.3071C238.604 29.7653 237.312 29.2026 235.937 28.619C234.604 28.0355 233.333 27.452 232.125 26.8685C230.959 26.2433 229.979 25.6598 229.188 25.118C228.438 24.5346 228.021 24.0137 227.938 23.5554C227.855 22.8887 227.792 22.1595 227.751 21.3678C227.709 20.5345 227.751 19.722 227.876 18.9304C228.043 18.097 228.335 17.3054 228.752 16.5555C229.21 15.8055 229.877 15.1806 230.752 14.6808C231.335 14.3475 232.106 14.0976 233.065 13.9311C234.023 13.7646 235.085 13.6814 236.252 13.6816C237.419 13.6401 238.627 13.6819 239.877 13.8071C241.127 13.8906 242.315 14.0158 243.439 14.1826C244.606 14.3078 245.648 14.4746 246.564 14.6831C247.523 14.8916 248.252 15.0792 248.752 15.2459C249.335 15.4543 249.96 15.4753 250.627 15.3087C251.21 15.1838 251.835 14.913 252.502 14.4965C253.169 14.0799 253.856 13.33 254.565 12.2468ZM284.377 12.2512C284.002 13.1678 283.669 14.0011 283.377 14.751C283.127 15.501 282.898 16.1676 282.689 16.7509C282.481 17.4176 282.293 18.0009 282.126 18.5008C281.96 19.0841 281.772 19.7508 281.564 20.5007C281.355 21.1674 281.084 22.0007 280.751 23.0006C280.459 23.9589 280.105 25.1047 279.688 26.438C279.355 24.4379 278.751 22.8545 277.876 21.6877C277.001 20.4792 276.105 19.5416 275.189 18.8748C274.106 18.1247 272.939 17.5828 271.689 17.2493C269.439 16.874 267.814 16.9154 266.814 17.3736C265.814 17.8318 265.147 18.415 264.814 19.1233C264.647 19.4149 264.459 19.7899 264.251 20.2482C264.084 20.6648 263.938 21.1023 263.813 21.5606C263.73 22.019 263.709 22.4773 263.751 22.9356C263.792 23.394 263.98 23.769 264.313 24.0607C264.521 24.2691 265.063 24.5608 265.938 24.936C266.813 25.2694 267.854 25.6654 269.063 26.1239C270.313 26.5408 271.625 26.9993 273 27.4995C274.417 27.9997 275.75 28.4999 277 29.0001C278.25 29.5003 279.333 30.0004 280.25 30.5006C281.166 31.0007 281.77 31.4591 282.062 31.8758C282.312 32.2925 282.583 32.8551 282.874 33.5634C283.207 34.2302 283.436 34.9802 283.561 35.8135C283.728 36.6052 283.769 37.4386 283.686 38.3136C283.644 39.1469 283.415 39.9802 282.998 40.8135C282.581 41.6467 281.915 42.4175 280.998 43.1257C280.123 43.8339 278.935 44.417 277.435 44.8751C275.685 45.4166 273.997 45.5621 272.372 45.3119C270.747 45.0617 269.247 44.6864 267.873 44.1862C266.539 43.686 265.373 43.2067 264.373 42.7482C263.373 42.2481 262.665 42.0396 262.248 42.1229C261.79 42.2062 261.269 42.4353 260.685 42.8102C260.102 43.1851 259.539 43.5808 258.998 43.9974C258.498 44.3724 258.06 44.7265 257.685 45.0597C257.31 45.3513 257.122 45.4555 257.122 45.3722C257.122 45.2888 257.185 45.0388 257.31 44.6222C257.477 44.2055 257.643 43.7056 257.81 43.1223C258.019 42.4973 258.206 41.8306 258.373 41.1223C258.581 40.3724 258.727 39.6641 258.811 38.9974C258.894 38.4557 258.999 37.7891 259.124 36.9974C259.207 36.2891 259.311 35.435 259.437 34.435C259.603 33.3934 259.791 32.1434 260 30.6851C260.208 31.7684 260.499 32.706 260.874 33.4977C261.291 34.2894 261.686 34.977 262.061 35.5604C262.52 36.2271 262.957 36.7897 263.374 37.2481C263.999 37.8315 264.728 38.3733 265.561 38.8734C266.436 39.3735 267.311 39.8112 268.186 40.1863C269.061 40.5197 269.894 40.7282 270.686 40.8116C271.477 40.8951 272.144 40.8119 272.686 40.5619C273.227 40.312 273.686 39.8538 274.061 39.1871C274.478 38.5205 274.769 37.7914 274.936 36.9998C275.103 36.2081 275.166 35.4581 275.124 34.7498C275.082 33.9998 274.895 33.3956 274.562 32.9372C274.312 32.6455 273.728 32.2704 272.812 31.812C271.937 31.3535 270.875 30.8533 269.625 30.3115C268.416 29.7696 267.125 29.207 265.75 28.6234C264.417 28.0399 263.146 27.4564 261.938 26.8729C260.771 26.2477 259.792 25.6642 259 25.1224C258.25 24.539 257.834 24.0181 257.751 23.5597C257.667 22.8931 257.605 22.1639 257.563 21.3722C257.522 20.5389 257.564 19.7264 257.689 18.9347C257.856 18.1014 258.147 17.3098 258.564 16.5599C259.023 15.8099 259.689 15.185 260.564 14.6852C261.148 14.3519 261.919 14.102 262.877 13.9355C263.835 13.769 264.898 13.6858 266.065 13.686C267.231 13.6445 268.44 13.6863 269.69 13.8115C270.94 13.895 272.127 14.0202 273.252 14.187C274.419 14.3122 275.46 14.479 276.377 14.6875C277.335 14.896 278.064 15.0836 278.564 15.2503C279.148 15.4587 279.773 15.4797 280.439 15.3131C281.023 15.1882 281.648 14.9174 282.314 14.5009C282.981 14.0843 283.669 13.3344 284.377 12.2512Z" fill="black"/>
</g>
<defs>
<filter id="filter0_i_5_365" x="0.684265" y="0.959412" width="283.695" height="54.6042" filterUnits="userSpaceOnUse" color-interpolation-filters="sRGB">
<feFlood flood-opacity="0" result="BackgroundImageFix"/>
<feBlend mode="normal" in="SourceGraphic" in2="BackgroundImageFix" result="shape"/>
<feColorMatrix in="SourceAlpha" type="matrix" values="0 0 0 0 0 0 0 0 0 0 0 0 0 0 0 0 0 0 127 0" result="hardAlpha"/>
<feOffset dy="6"/>
<feGaussianBlur stdDeviation="3"/>
<feComposite in2="hardAlpha" operator="arithmetic" k2="-1" k3="1"/>
<feColorMatrix type="matrix" values="0 0 0 0 0 0 0 0 0 0 0 0 0 0 0 0 0 0 0.25 0"/>
<feBlend mode="normal" in2="shape" result="effect1_innerShadow_5_365"/>
</filter>
</defs>
</svg>
