<svg width="45" height="45" viewBox="0 0 45 45" fill="none" xmlns="http://www.w3.org/2000/svg">
<path d="M30.9375 16.875C30.9375 19.1128 30.0486 21.2589 28.4662 22.8412C26.8839 24.4236 24.7378 25.3125 22.5 25.3125C20.2622 25.3125 18.1161 24.4236 16.5338 22.8412C14.9514 21.2589 14.0625 19.1128 14.0625 16.875C14.0625 14.6372 14.9514 12.4911 16.5338 10.9088C18.1161 9.32645 20.2622 8.4375 22.5 8.4375C24.7378 8.4375 26.8839 9.32645 28.4662 10.9088C30.0486 12.4911 30.9375 14.6372 30.9375 16.875Z" fill="black"/>
<path fill-rule="evenodd" clip-rule="evenodd" d="M0 22.5C0 16.5326 2.37053 10.8097 6.5901 6.5901C10.8097 2.37053 16.5326 0 22.5 0C28.4674 0 34.1903 2.37053 38.4099 6.5901C42.6295 10.8097 45 16.5326 45 22.5C45 28.4674 42.6295 34.1903 38.4099 38.4099C34.1903 42.6295 28.4674 45 22.5 45C16.5326 45 10.8097 42.6295 6.5901 38.4099C2.37053 34.1903 0 28.4674 0 22.5ZM22.5 2.8125C18.7925 2.8127 15.1604 3.85977 12.0218 5.8332C8.88311 7.80664 6.36548 10.6262 4.75865 13.9674C3.15182 17.3086 2.52109 21.0356 2.93906 24.7195C3.35703 28.4034 4.80671 31.8943 7.12125 34.7906C9.11812 31.5731 13.5141 28.125 22.5 28.125C31.4859 28.125 35.8791 31.5703 37.8787 34.7906C40.1933 31.8943 41.643 28.4034 42.0609 24.7195C42.4789 21.0356 41.8482 17.3086 40.2414 13.9674C38.6345 10.6262 36.1169 7.80664 32.9782 5.8332C29.8396 3.85977 26.2075 2.8127 22.5 2.8125Z" fill="black"/>
</svg>
